<svg width="20" height="20" viewBox="0 0 20 20" fill="none" xmlns="http://www.w3.org/2000/svg">
<path d="M0.549996 0.550119C0.723909 0.375958 0.93045 0.237792 1.15781 0.143524C1.38516 0.0492549 1.62887 0.000732422 1.875 0.000732422C2.12112 0.000732422 2.36483 0.0492549 2.59219 0.143524C2.81954 0.237792 3.02608 0.375958 3.2 0.550119L10 7.34762L16.8 0.550119C16.974 0.376117 17.1806 0.238091 17.4079 0.143922C17.6353 0.0497535 17.8789 0.00128556 18.125 0.00128555C18.3711 0.00128555 18.6147 0.0497535 18.8421 0.143922C19.0694 0.238091 19.276 0.376117 19.45 0.550119C19.624 0.72412 19.762 0.93069 19.8562 1.15803C19.9504 1.38538 19.9988 1.62904 19.9988 1.87512C19.9988 2.12119 19.9504 2.36486 19.8562 2.5922C19.762 2.81955 19.624 3.02612 19.45 3.20012L12.6525 10.0001L19.45 16.8001C19.8014 17.1515 19.9988 17.6281 19.9988 18.1251C19.9988 18.6221 19.8014 19.0987 19.45 19.4501C19.0986 19.8015 18.622 19.999 18.125 19.999C17.628 19.999 17.1514 19.8015 16.8 19.4501L10 12.6526L3.2 19.4501C2.84858 19.8015 2.37197 19.999 1.875 19.999C1.37803 19.999 0.901408 19.8015 0.549996 19.4501C0.198585 19.0987 0.00116348 18.6221 0.00116348 18.1251C0.00116348 17.6281 0.198585 17.1515 0.549996 16.8001L7.3475 10.0001L0.549996 3.20012C0.375836 3.02621 0.23767 2.81966 0.143402 2.59231C0.0491329 2.36495 0.000610352 2.12124 0.000610352 1.87512C0.000610352 1.62899 0.0491329 1.38528 0.143402 1.15793C0.23767 0.930572 0.375836 0.724031 0.549996 0.550119Z" fill="#261D20"/>
</svg>
