<svg width="35" height="35" viewBox="0 0 35 35" fill="none" xmlns="http://www.w3.org/2000/svg">
<path d="M5.83333 18.9584C6.63875 18.9584 7.29167 18.3055 7.29167 17.5001C7.29167 16.6947 6.63875 16.0417 5.83333 16.0417C5.02792 16.0417 4.375 16.6947 4.375 17.5001C4.375 18.3055 5.02792 18.9584 5.83333 18.9584Z" fill="#261D20"/>
<path d="M29.2541 16.0417H11.5791C10.8221 16.0417 10.2083 16.6555 10.2083 17.4126V17.5876C10.2083 18.3447 10.8221 18.9584 11.5791 18.9584H29.2541C30.0112 18.9584 30.625 18.3447 30.625 17.5876V17.4126C30.625 16.6555 30.0112 16.0417 29.2541 16.0417Z" fill="#261D20"/>
<path d="M29.2542 23.3333H5.74583C4.98874 23.3333 4.375 23.947 4.375 24.7041V24.8791C4.375 25.6362 4.98874 26.2499 5.74583 26.2499H29.2542C30.0113 26.2499 30.625 25.6362 30.625 24.8791V24.7041C30.625 23.947 30.0113 23.3333 29.2542 23.3333Z" fill="#261D20"/>
<path d="M29.2542 8.75H5.74583C4.98874 8.75 4.375 9.36374 4.375 10.1208V10.2958C4.375 11.0529 4.98874 11.6667 5.74583 11.6667H29.2542C30.0113 11.6667 30.625 11.0529 30.625 10.2958V10.1208C30.625 9.36374 30.0113 8.75 29.2542 8.75Z" fill="#261D20"/>
</svg>
